<svg width="61" height="61" viewBox="0 0 61 61" fill="none" xmlns="http://www.w3.org/2000/svg">
<path fill-rule="evenodd" clip-rule="evenodd" d="M20.1676 12.6046C20.1676 7.03559 24.6822 2.521 30.2513 2.521C35.8202 2.521 40.3349 7.03559 40.3349 12.6046V30.251C40.3349 35.82 35.8202 40.3347 30.2513 40.3347C24.6822 40.3347 20.1676 35.82 20.1676 30.251V12.6046ZM30.2513 7.56282C33.0359 7.56282 35.2931 9.82012 35.2931 12.6046V30.251C35.2931 33.0356 33.0359 35.2928 30.2513 35.2928C27.4667 35.2928 25.2094 33.0356 25.2094 30.251V12.6046C25.2094 9.82012 27.4667 7.56282 30.2513 7.56282Z" fill="#4F4F4F"/>
<path d="M12.6049 27.7301C11.2126 27.7301 10.084 28.8587 10.084 30.251C10.084 40.5353 17.7821 49.0217 27.7304 50.2623V55.4601C27.7304 56.8524 28.859 57.981 30.2513 57.981C31.6436 57.981 32.7722 56.8524 32.7722 55.4601V50.2623C42.7205 49.0217 50.4186 40.5353 50.4186 30.251C50.4186 28.8587 49.2899 27.7301 47.8976 27.7301C46.5053 27.7301 45.3767 28.8587 45.3767 30.251C45.3767 31.1099 45.3051 31.9521 45.1675 32.7719C43.9675 39.9255 37.7459 45.3765 30.2513 45.3765C22.7566 45.3765 16.5351 39.9255 15.3349 32.7719C15.1974 31.9521 15.1258 31.1099 15.1258 30.251C15.1258 28.8587 13.9971 27.7301 12.6049 27.7301Z" fill="#4F4F4F"/>
</svg>
