<svg width="16" height="22" viewBox="0 0 16 22" fill="none" xmlns="http://www.w3.org/2000/svg">
<path d="M8 0C5.79086 0 4 1.79086 4 4V11C4 13.2091 5.79086 15 8 15C10.2091 15 12 13.2091 12 11V4C12 1.79086 10.2091 0 8 0Z" fill="#4F4F4F"/>
<path d="M1 10C0.44772 10 0 10.4477 0 11C0 15.0796 3.05369 18.446 7 18.9381V21C7 21.5523 7.4477 22 8 22C8.5523 22 9 21.5523 9 21V18.9381C12.9463 18.446 16 15.0796 16 11C16 10.4477 15.5523 10 15 10C14.4477 10 14 10.4477 14 11C14 11.3407 13.9716 11.6748 13.917 12C13.441 14.8377 10.973 17 8 17C5.027 17 2.55904 14.8377 2.08296 12C2.0284 11.6748 2 11.3407 2 11C2 10.4477 1.55228 10 1 10Z" fill="#4F4F4F"/>
</svg>
