<svg width="22" height="24" viewBox="0 0 22 24" fill="none" xmlns="http://www.w3.org/2000/svg">
<path d="M10.6667 10.6667C13.6121 10.6667 16 8.27885 16 5.33333C16 2.38781 13.6121 0 10.6667 0C7.72115 0 5.33333 2.38781 5.33333 5.33333C5.33333 8.27885 7.72115 10.6667 10.6667 10.6667Z" fill="#4F4F4F"/>
<path d="M20.7753 17.972C21.1523 18.4099 21.3333 18.9777 21.3333 19.5555V21.3333C21.3333 22.8061 20.1395 24 18.6667 24H2.66667C1.19391 24 0 22.8061 0 21.3333V19.5555C0 18.9777 0.181013 18.4099 0.55796 17.972C3.00313 15.1317 6.62488 13.3333 10.6667 13.3333C14.7084 13.3333 18.3301 15.1317 20.7753 17.972Z" fill="#4F4F4F"/>
</svg>
