<svg width="12" height="21" viewBox="0 0 12 21" fill="none" xmlns="http://www.w3.org/2000/svg">
<path d="M0.366123 18.4858L8.54202 10.3098L0.366123 2.13388C0.305098 2.07287 0.25171 2.00711 0.205948 1.93779C-0.082565 1.50084 -0.06794 0.922645 0.249797 0.500008C0.284885 0.453345 0.323648 0.408583 0.366123 0.36612C0.496623 0.23562 0.648799 0.140007 0.811061 0.0792822C1.02815 -0.00196782 1.2633 -0.0207678 1.48875 0.0228822C1.72511 0.0686447 1.95082 0.183058 2.13389 0.36612L11.1936 9.42588C11.4281 9.66038 11.5598 9.97826 11.5598 10.3098C11.5598 10.6414 11.4281 10.9593 11.1936 11.1938L2.13389 20.2535C1.64572 20.7416 0.854273 20.7416 0.366123 20.2535C0.305098 20.1925 0.25171 20.1268 0.205948 20.0574C-0.114415 19.5723 -0.0610144 18.9129 0.366123 18.4858Z" fill="#4F4F4F"/>
</svg>
