<svg width="22" height="22" viewBox="0 0 22 22" fill="none" xmlns="http://www.w3.org/2000/svg">
<path fill-rule="evenodd" clip-rule="evenodd" d="M10.7238 15C12.933 15 14.7238 13.2091 14.7238 11C14.7238 8.79086 12.933 7 10.7238 7C8.51474 7 6.72388 8.79086 6.72388 11C6.72388 13.2091 8.51474 15 10.7238 15ZM10.7238 13C11.8284 13 12.7238 12.1046 12.7238 11C12.7238 9.8954 11.8284 9 10.7238 9C9.61935 9 8.72385 9.8954 8.72385 11C8.72385 12.1046 9.61935 13 10.7238 13Z" fill="#4F4F4F"/>
<path fill-rule="evenodd" clip-rule="evenodd" d="M13.8418 0.86489L14.2439 3.81406C14.5711 3.97464 14.8857 4.1569 15.1859 4.35898L17.9421 3.23223C18.405 3.043 18.9365 3.2248 19.1866 3.65787L21.3137 7.34213C21.5637 7.77521 21.4554 8.3264 21.0601 8.63266L18.7057 10.4566C18.7177 10.6362 18.7238 10.8174 18.7238 11C18.7238 11.1826 18.7177 11.3638 18.7057 11.5434L21.0601 13.3673C21.4554 13.6736 21.5637 14.2248 21.3137 14.6579L19.1866 18.3421C18.9365 18.7752 18.405 18.957 17.9421 18.7678L15.1859 17.641C14.8857 17.8431 14.5711 18.0254 14.2439 18.1859L13.8418 21.1351C13.7742 21.6306 13.351 22 12.8509 22H8.59676C8.09669 22 7.6735 21.6306 7.60593 21.1351L7.20377 18.1859C6.87659 18.0254 6.56198 17.8431 6.26181 17.641L3.50558 18.7678C3.0427 18.957 2.51119 18.7752 2.26115 18.3421L0.134051 14.6579C-0.115989 14.2248 -0.00767857 13.6736 0.387641 13.3673L2.74204 11.5434C2.72999 11.3638 2.72388 11.1826 2.72388 11C2.72388 10.8174 2.72999 10.6362 2.74204 10.4566L0.387641 8.63266C-0.00767857 8.3264 -0.115989 7.77521 0.134041 7.34213L2.26115 3.65787C2.51118 3.2248 3.04269 3.043 3.50558 3.23223L6.26181 4.35898C6.56198 4.1569 6.87659 3.97464 7.20377 3.81406L7.60593 0.86489C7.6735 0.3694 8.09669 0 8.59676 0H12.8509C13.351 0 13.7742 0.3694 13.8418 0.86489ZM12.4062 5.14003L13.3628 5.60948C13.6078 5.72975 13.8437 5.86639 14.069 6.01805L14.9546 6.61423L17.891 5.41382L19.1452 7.58619L16.6389 9.5278L16.7102 10.5905C16.7192 10.7255 16.7238 10.8621 16.7238 11C16.7238 11.1379 16.7192 11.2745 16.7102 11.4095L16.6389 12.4722L19.1452 14.4138L17.891 16.5862L14.9546 15.3858L14.069 15.982C13.8437 16.1336 13.6078 16.2702 13.3628 16.3905L12.4062 16.86L11.9781 20H9.46963L9.04143 16.86L8.08494 16.3905C7.83989 16.2702 7.604 16.1336 7.37873 15.982L6.49317 15.3858L3.55676 16.5862L2.30254 14.4138L4.80883 12.4722L4.73755 11.4095C4.7285 11.2745 4.72387 11.1379 4.72387 11C4.72387 10.8621 4.7285 10.7255 4.73755 10.5905L4.80883 9.5278L2.30254 7.58619L3.55675 5.41382L6.49316 6.61423L7.37873 6.01805C7.604 5.86639 7.83988 5.72976 8.08494 5.60949L9.04143 5.14004L9.46963 2H11.9781L12.4062 5.14003Z" fill="#4F4F4F"/>
</svg>
