<svg width="39" height="34" viewBox="0 0 39 34" fill="none" xmlns="http://www.w3.org/2000/svg">
<path d="M21.0752 14.0309C21.0974 13.5097 20.6809 13.075 20.1593 13.075H18.1626C17.6406 13.075 17.2239 13.5103 17.2468 14.0318L17.518 20.2188C17.5394 20.7088 17.9431 21.0953 18.4337 21.0953H19.8949C20.3859 21.0953 20.7898 20.7083 20.8107 20.2177L21.0752 14.0309Z" fill="#4F4F4F"/>
<path d="M17.6707 27.0216C18.0867 27.4318 18.5848 27.6367 19.1649 27.6367C19.5398 27.6367 19.8856 27.543 20.202 27.3555C20.5184 27.1623 20.7733 26.9072 20.9665 26.591C21.1658 26.2687 21.2683 25.9141 21.2741 25.5275C21.2683 24.9533 21.0545 24.461 20.6326 24.0509C20.2108 23.6408 19.7215 23.4356 19.1649 23.4356C18.5848 23.4356 18.0867 23.6408 17.6707 24.0509C17.2547 24.461 17.0496 24.9533 17.0554 25.5275C17.0496 26.1075 17.2547 26.6055 17.6707 27.0216Z" fill="#4F4F4F"/>
<path fill-rule="evenodd" clip-rule="evenodd" d="M16.7788 1.375C17.8374 -0.458333 20.4836 -0.458333 21.542 1.375L37.9483 29.7917C39.0069 31.625 37.6837 33.9167 35.5668 33.9167H2.75409C0.63714 33.9167 -0.68594 31.625 0.372535 29.7917L16.7788 1.375ZM33.9791 30.25L19.1605 4.58333L4.34181 30.25H33.9791Z" fill="#4F4F4F"/>
</svg>
