<svg width="21" height="19" viewBox="0 0 21 19" fill="none" xmlns="http://www.w3.org/2000/svg">
<path d="M11.4956 7.65322C11.5077 7.36893 11.2805 7.13184 10.996 7.13184H9.90687C9.62217 7.13184 9.39487 7.36927 9.40737 7.65372L9.55527 11.0284C9.56697 11.2957 9.78717 11.5065 10.0548 11.5065H10.8518C11.1196 11.5065 11.3399 11.2954 11.3513 11.0278L11.4956 7.65322Z" fill="#FF914D"/>
<path d="M9.63857 14.7391C9.86547 14.9628 10.1372 15.0746 10.4536 15.0746C10.6581 15.0746 10.8467 15.0235 11.0193 14.9212C11.1919 14.8158 11.3309 14.6767 11.4363 14.5042C11.545 14.3284 11.6009 14.135 11.6041 13.9241C11.6009 13.6109 11.4843 13.3424 11.2542 13.1187C11.0241 12.895 10.7572 12.7831 10.4536 12.7831C10.1372 12.7831 9.86547 12.895 9.63857 13.1187C9.41167 13.3424 9.29977 13.6109 9.30297 13.9241C9.29977 14.2405 9.41167 14.5121 9.63857 14.7391Z" fill="#FF914D"/>
<path fill-rule="evenodd" clip-rule="evenodd" d="M9.15207 0.75C9.72947 -0.25 11.1729 -0.25 11.7502 0.75L20.6991 16.25C21.2765 17.25 20.5548 18.5 19.4001 18.5H1.50223C0.347531 18.5 -0.374149 17.25 0.203201 16.25L9.15207 0.75ZM18.5341 16.5L10.4512 2.5L2.36826 16.5H18.5341Z" fill="#FF914D"/>
</svg>
