<svg width="20" height="21" viewBox="0 0 20 21" fill="none" xmlns="http://www.w3.org/2000/svg">
<path d="M10 0C15.5228 0 20 4.47715 20 10V17C20 19.2091 18.2091 21 16 21H11C10.4477 21 10 20.5523 10 20C10 19.4477 10.4477 19 11 19H16C17.1046 19 18 18.1046 18 17H15C13.8954 17 13 16.1046 13 15V11C13 9.8954 13.8954 9 15 9H17.9381C17.446 5.05369 14.0796 2 10 2C5.92038 2 2.55399 5.05369 2.06189 9H5C6.10457 9 7 9.8954 7 11V15C7 16.1046 6.10457 17 5 17H2C0.89543 17 0 16.1046 0 15V10C0 4.47715 4.47715 0 10 0Z" fill="#4F4F4F"/>
</svg>
