<?xml version="1.0" standalone="no"?>
<!DOCTYPE svg PUBLIC "-//W3C//DTD SVG 20010904//EN"
 "http://www.w3.org/TR/2001/REC-SVG-20010904/DTD/svg10.dtd">
<svg version="1.0" xmlns="http://www.w3.org/2000/svg"
 width="74.000000pt" height="70.000000pt" viewBox="0 0 74.000000 70.000000"
 preserveAspectRatio="xMidYMid meet">

<g transform="translate(0.000000,70.000000) scale(0.100000,-0.100000)"
fill="#000000" stroke="none">
<path d="M228 523 l-128 -127 0 -146 c0 -100 4 -150 12 -158 8 -8 48 -12 115
-12 122 0 123 1 123 115 l0 76 28 -3 c27 -3 27 -4 30 -83 2 -43 8 -85 14 -92
7 -9 41 -13 114 -13 94 0 104 2 114 21 7 13 10 71 8 160 l-3 140 -126 124
c-89 88 -132 125 -149 125 -16 0 -61 -37 -152 -127z m259 -45 l103 -103 0
-113 0 -113 -57 3 -58 3 -5 85 -5 85 -84 3 c-61 2 -87 -1 -92 -10 -5 -7 -9
-48 -9 -91 l0 -78 -57 3 -58 3 -3 104 -3 105 108 108 c59 59 110 108 113 108
2 0 51 -46 107 -102z"/>
</g>
</svg>
